<svg width="24" height="24" viewBox="0 0 24 24" fill="none" xmlns="http://www.w3.org/2000/svg">
<path opacity="0.4" fill-rule="evenodd" clip-rule="evenodd" d="M12 1.5C6.20101 1.5 1.5 6.20101 1.5 12C1.5 17.799 6.20101 22.5 12 22.5C17.799 22.5 22.5 17.799 22.5 12C22.5 6.20101 17.799 1.5 12 1.5ZM8.5 12C8.5 11.5858 8.83579 11.25 9.25 11.25H14.75C15.1642 11.25 15.5 11.5858 15.5 12V15.75C15.5 16.1642 15.1642 16.5 14.75 16.5H9.25C8.83579 16.5 8.5 16.1642 8.5 15.75V12Z" fill="currentColor"/>
<path d="M17.6998 4.39907C16.1121 3.20648 14.1393 2.5 12.0001 2.5C6.75335 2.5 2.50006 6.75329 2.50006 12C2.50006 17.2467 6.75335 21.5 12.0001 21.5C16.2531 21.5 19.8545 18.7049 21.0652 14.8502C21.148 14.5867 21.4286 14.4402 21.6921 14.523C21.9555 14.6057 22.102 14.8864 22.0193 15.1498C20.6814 19.4093 16.7023 22.5 12.0001 22.5C6.20107 22.5 1.50006 17.799 1.50006 12C1.50006 6.20101 6.20107 1.5 12.0001 1.5C14.3633 1.5 16.5454 2.28131 18.3004 3.5995C19.0259 4.14448 19.802 4.92335 20.4607 5.6841C20.8511 6.135 21.2106 6.59144 21.5 7.00218V2.5C21.5 2.22386 21.7239 2 22 2C22.2762 2 22.5 2.22386 22.5 2.5V8C22.5 8.27614 22.2762 8.5 22 8.5H21.5525C21.546 8.50013 21.5394 8.50013 21.5329 8.5H16.5C16.2239 8.5 16 8.27614 16 8C16 7.72386 16.2239 7.5 16.5 7.5H20.627C20.3736 7.14673 20.0577 6.74632 19.7047 6.33867C19.0711 5.6069 18.3473 4.88541 17.6998 4.39907Z" fill="currentColor"/>
<path fill-rule="evenodd" clip-rule="evenodd" d="M9.25003 9C9.25003 7.56555 10.5382 6.5 12 6.5C13.4618 6.5 14.75 7.56555 14.75 9V10.25C15.7165 10.25 16.5 11.0335 16.5 12V15.75C16.5 16.7165 15.7165 17.5 14.75 17.5H9.25003C8.28353 17.5 7.50003 16.7165 7.50003 15.75V12C7.50003 11.0335 8.28353 10.25 9.25003 10.25V9ZM10.25 10.25H13.75V9C13.75 8.22531 13.0235 7.5 12 7.5C10.9765 7.5 10.25 8.22531 10.25 9V10.25ZM9.25003 11.25C8.83582 11.25 8.50003 11.5858 8.50003 12V15.75C8.50003 16.1642 8.83582 16.5 9.25003 16.5H14.75C15.1642 16.5 15.5 16.1642 15.5 15.75V12C15.5 11.5858 15.1642 11.25 14.75 11.25H9.25003Z" fill="currentColor"/>
</svg>
