<svg width="25" height="24" viewBox="0 0 25 24" fill="none" xmlns="http://www.w3.org/2000/svg">
<path d="M20.6171 3.53697C21.578 4.49781 21.6077 6.03218 20.6827 6.95719L15.5624 12.0775L20.682 17.1971C21.607 18.1221 21.5786 19.6565 20.6178 20.6173C19.6573 21.5778 18.1226 21.6066 17.1976 20.6815L12.078 15.5619L6.95766 20.6822C6.03264 21.607 4.49824 21.5774 3.53745 20.6166C2.57728 19.6562 2.54851 18.1228 3.47323 17.1978L8.59354 12.0775L3.47323 6.95719C2.54823 6.03218 2.57697 4.49746 3.53745 3.53697C4.49832 2.57623 6.0327 2.54779 6.95766 3.47275L12.078 8.59306L17.1983 3.47275C18.1232 2.54789 19.6566 2.57676 20.6171 3.53697Z" fill="currentColor"/>
</svg>
