<svg width="24" height="24" viewBox="0 0 24 24" fill="none" xmlns="http://www.w3.org/2000/svg">
<path opacity="0.4" d="M3.93834 16.4479C2.86798 15.3775 2.3328 14.8423 2.13228 14.2252C1.95591 13.6824 1.95591 13.0976 2.13228 12.5548C2.3328 11.9376 2.86798 11.4025 3.93834 10.3321L10.3321 3.93837C11.4024 2.86802 11.9376 2.33284 12.5547 2.13232C13.0976 1.95594 13.6823 1.95594 14.2252 2.13232C14.8423 2.33284 15.3775 2.86802 16.4478 3.93837L20.0617 7.55222C21.132 8.62258 21.6672 9.15776 21.8677 9.77488C22.0441 10.3177 22.0441 10.9025 21.8677 11.4453C21.6672 12.0624 21.132 12.5976 20.0617 13.668L13.6679 20.0617C12.5976 21.1321 12.0624 21.6672 11.4453 21.8678C10.9024 22.0441 10.3177 22.0441 9.77485 21.8678C9.15772 21.6672 8.62254 21.1321 7.55219 20.0617L3.93834 16.4479Z" fill="currentColor"/>
<path fill-rule="evenodd" clip-rule="evenodd" d="M3.56921 16.7857C3.2018 16.4183 2.88821 16.1047 2.62803 15.8256C2.61985 15.8174 2.61194 15.8089 2.60433 15.8001C2.50408 15.692 2.41196 15.589 2.32795 15.49C2.01522 15.1217 1.78553 14.7759 1.65676 14.3796C1.44775 13.7363 1.44775 13.0434 1.65676 12.4002C1.78553 12.0038 2.01522 11.6581 2.32795 11.2897C2.63386 10.9294 3.04722 10.516 3.56921 9.99402L9.99409 3.56914C10.5161 3.04715 10.9294 2.63379 11.2898 2.32788C11.6582 2.01515 12.0039 1.78547 12.4002 1.65669C13.0435 1.44768 13.7364 1.44768 14.3797 1.65669C14.776 1.78547 15.1217 2.01515 15.4901 2.32788C15.8504 2.63378 16.2638 3.04713 16.7857 3.56909L20.4308 7.21419C20.9527 7.73607 21.3662 8.14953 21.672 8.50982C21.9848 8.8782 22.2145 9.22393 22.3432 9.62027C22.5523 10.2635 22.5523 10.9564 22.3432 11.5997C22.2145 11.996 21.9848 12.3418 21.672 12.7102C21.3662 13.0705 20.9528 13.4838 20.4309 14.0057L14.0059 20.4308C13.5761 20.8606 13.2199 21.2168 12.9063 21.4999H20C20.2761 21.4999 20.5 21.7238 20.5 21.9999C20.5 22.2761 20.2761 22.4999 20 22.4999H10.6147C10.6116 22.4999 10.6085 22.4999 10.6055 22.4999L2 22.4999C1.72386 22.4999 1.5 22.2761 1.5 21.9999C1.5 21.7238 1.72386 21.4999 2 21.4999L8.3138 21.4999C8.00024 21.2168 7.64406 20.8606 7.21425 20.4308L3.56921 16.7857ZM14.0706 2.60774C13.6282 2.46399 13.1517 2.46399 12.7092 2.60774C12.4885 2.67948 12.258 2.81764 11.9369 3.09022C11.6114 3.36659 11.2266 3.75081 10.6856 4.29182L4.29189 10.6856C3.75088 11.2266 3.36666 11.6113 3.09029 11.9369C2.81771 12.258 2.67955 12.4884 2.60781 12.7092C2.46406 13.1516 2.46406 13.6282 2.60781 14.0706C2.67955 14.2914 2.81771 14.5218 3.09029 14.8429C3.11786 14.8753 3.1465 14.9084 3.17626 14.9422L11.5437 13.8114C12.4391 13.6904 12.7424 13.6402 12.9725 13.5069C13.194 13.3786 13.378 13.1946 13.5062 12.9732C13.6395 12.7431 13.6897 12.4398 13.8107 11.5444L14.9416 3.17568C14.9081 3.1461 14.8752 3.11763 14.8429 3.09022C14.5219 2.81764 14.2914 2.67948 14.0706 2.60774ZM10.6069 21.4999C10.609 21.4999 10.6111 21.4999 10.6133 21.4999C10.8419 21.4996 11.0706 21.4637 11.2908 21.3921C11.5115 21.3204 11.742 21.1822 12.0631 20.9096C12.3886 20.6333 12.7734 20.2491 13.3144 19.708L19.7081 13.3143C20.2491 12.7733 20.6333 12.3885 20.9097 12.063C21.1823 11.7419 21.3205 11.5115 21.3922 11.2907C21.5359 10.8483 21.5359 10.3717 21.3922 9.92929C21.3205 9.7085 21.1823 9.47808 20.9097 9.157C20.6333 8.83145 20.2491 8.44668 19.7081 7.90567L16.0943 4.29182C16.0036 4.20113 15.9173 4.11485 15.8349 4.03274L14.7877 11.7823C14.6868 12.5316 14.617 13.0507 14.3716 13.4744C14.1558 13.8469 13.8462 14.1565 13.4737 14.3722C13.05 14.6176 12.5309 14.6875 11.7816 14.7884L4.03338 15.8354C4.11532 15.9176 4.20141 16.0037 4.29189 16.0942L7.90574 19.708C8.44675 20.2491 8.83152 20.6333 9.15706 20.9096C9.47814 21.1822 9.70857 21.3204 9.92935 21.3921C10.1495 21.4637 10.3782 21.4996 10.6069 21.4999Z" fill="currentColor"/>
</svg>
