<svg width="24" height="24" viewBox="0 0 24 24" fill="none" xmlns="http://www.w3.org/2000/svg">
<path opacity="0.4" d="M3.7033 14.5707L5.47138 11.5739C5.80986 11.0002 5.9791 10.7134 6.21373 10.5049C6.42135 10.3204 6.66512 10.1812 6.9295 10.0961C7.22828 10 7.56133 10 8.22744 10H17.9065C19.7427 10 20.6608 10 21.188 10.3853C21.6477 10.7213 21.9424 11.2374 21.9982 11.8041C22.0622 12.4539 21.5956 13.2446 20.6626 14.8261L18.7708 18.0326C18.3477 18.7497 18.1361 19.1083 17.8428 19.3689C17.5833 19.5995 17.2786 19.7735 16.9481 19.8798C16.5746 20 16.1583 20 15.3257 20H6.80387C4.73817 20 3.70532 20 3.11225 19.5665C2.59504 19.1885 2.26349 18.608 2.20074 17.9704C2.12878 17.2393 2.65362 16.3498 3.7033 14.5707Z" fill="currentColor"/>
<path fill-rule="evenodd" clip-rule="evenodd" d="M6.63087 20.5H5.97811C5.29661 20.5 4.75457 20.5 4.31729 20.4643C3.86949 20.4277 3.48765 20.3512 3.13803 20.1731C2.57354 19.8854 2.1146 19.4265 1.82698 18.862C1.64884 18.5124 1.57231 18.1305 1.53572 17.6827C1.49999 17.2454 1.5 16.7034 1.5 16.0219V7.97815C1.5 7.29663 1.49999 6.75462 1.53572 6.31732C1.57231 5.86952 1.64884 5.48768 1.82698 5.13806C2.1146 4.57357 2.57354 4.11463 3.13803 3.82701C3.48765 3.64887 3.86949 3.57234 4.31729 3.53575C4.75458 3.50003 5.2966 3.50003 5.97812 3.50003L7.55683 3.50002C7.87433 3.49987 8.11422 3.49975 8.34557 3.55529C8.54964 3.60429 8.74473 3.68509 8.92368 3.79475C9.12654 3.91907 9.29609 4.08878 9.52049 4.31339L10.1506 4.94354C10.4269 5.21979 10.5096 5.29802 10.5988 5.35267C10.6883 5.4075 10.7858 5.44791 10.8879 5.4724C10.9896 5.49682 11.1034 5.50003 11.4941 5.50003H14.0219C14.7034 5.50003 15.2454 5.50003 15.6827 5.53575C16.1305 5.57234 16.5123 5.64887 16.862 5.82701C17.4265 6.11463 17.8854 6.57357 18.173 7.13806C18.3512 7.48768 18.4277 7.86952 18.4643 8.31732C18.4912 8.64718 18.4979 9.03662 18.4995 9.50058C19.1335 9.50249 19.657 9.51114 20.0838 9.55029C20.6341 9.60078 21.1074 9.70715 21.483 9.98167C22.0577 10.4017 22.4261 11.0468 22.4958 11.7551C22.5414 12.2181 22.3925 12.6798 22.1563 13.1794C21.9212 13.6768 21.5618 14.286 21.1067 15.0574L19.1583 18.3597C18.7769 19.0066 18.5277 19.4292 18.1749 19.7427C17.8635 20.0194 17.4978 20.2282 17.1013 20.3558C16.652 20.5004 16.1614 20.5002 15.4104 20.5001L6.77716 20.5C6.72789 20.5 6.67912 20.5 6.63087 20.5ZM7.50589 4.50003C7.89657 4.50003 8.01042 4.50325 8.11212 4.52766C8.21416 4.55216 8.31171 4.59256 8.40118 4.64739C8.49036 4.70204 8.57313 4.78027 8.84939 5.05653L9.47951 5.68668C9.70391 5.91129 9.87346 6.081 10.0763 6.20531C10.2553 6.31497 10.4504 6.39578 10.6544 6.44477C10.8858 6.50031 11.1257 6.5002 11.4432 6.50005L14 6.50003C14.7083 6.50003 15.2095 6.50042 15.6013 6.53243C15.9872 6.56397 16.2228 6.62368 16.408 6.71802C16.7843 6.90977 17.0903 7.21573 17.282 7.59205C17.3764 7.77721 17.4361 8.01279 17.4676 8.39875C17.4915 8.6913 17.4978 9.04483 17.4994 9.50004L8.14862 9.50002C7.55877 9.49979 7.15105 9.49964 6.77632 9.62022C6.44585 9.72657 6.14114 9.90058 5.88161 10.1312C5.58734 10.3926 5.38029 10.7439 5.08076 11.252L3.25908 14.3396C2.96911 14.8311 2.71429 15.263 2.5 15.6462V8.00003C2.5 7.29172 2.50039 6.79055 2.5324 6.39875C2.56393 6.01279 2.62365 5.77721 2.71799 5.59205C2.90973 5.21573 3.21569 4.90977 3.59202 4.71802C3.77717 4.62368 4.01276 4.56397 4.39872 4.53243C4.79052 4.50042 5.29168 4.50003 6 4.50003H7.50589ZM9.00242 19.5C9.00161 19.5 9.00081 19.5 9 19.5H6.6795C5.70134 19.4999 4.99117 19.4975 4.4515 19.4479C3.88628 19.3961 3.5918 19.2978 3.40728 19.1629C3.005 18.8689 2.74713 18.4173 2.69832 17.9215C2.67593 17.694 2.74089 17.3904 2.98344 16.8773C3.22473 16.3668 3.60407 15.7228 4.13392 14.8248L5.902 11.828C6.25742 11.2256 6.38376 11.0227 6.54582 10.8787C6.70154 10.7404 6.88436 10.636 7.08265 10.5721C7.28902 10.5057 7.52798 10.5 8.22743 10.5H17.9065C18.8345 10.5 19.4958 10.5005 19.9924 10.5461C20.492 10.5919 20.7414 10.6782 20.8929 10.789C21.2377 11.041 21.4588 11.4281 21.5006 11.8531C21.519 12.04 21.4666 12.2985 21.2522 12.7521C21.0391 13.203 20.7035 13.7728 20.232 14.572L18.3401 17.7786C17.9001 18.5244 17.7314 18.799 17.5107 18.9951C17.3031 19.1796 17.0593 19.3188 16.7949 19.4039C16.5139 19.4943 16.1916 19.5 15.3257 19.5H9.00242Z" fill="currentColor"/>
</svg>
