<svg width="24" height="24" viewBox="0 0 24 24" fill="none" xmlns="http://www.w3.org/2000/svg">
<path opacity="0.4" fill-rule="evenodd" clip-rule="evenodd" d="M20.0961 3.90393C22.6346 6.44249 22.6346 10.5575 20.0961 13.0961C18.4326 14.7596 16.0921 15.333 13.9619 14.8163C13.5893 14.726 13.1884 14.8116 12.9173 15.0827L9.14645 18.8536C9.05268 18.9473 8.9255 19 8.79289 19H6.5C6.22386 19 6 19.2239 6 19.5V21.5C6 21.7761 5.77614 22 5.5 22H2.5C2.22386 22 2 21.7761 2 21.5V18.4142C2 18.149 2.10536 17.8946 2.29289 17.7071L8.9173 11.0827C9.18842 10.8116 9.27403 10.4107 9.18366 10.0381C8.667 7.90788 9.24042 5.56743 10.9039 3.90393C13.4425 1.36536 17.5575 1.36536 20.0961 3.90393ZM17.5606 8.56063C18.1465 7.97481 18.1465 7.02519 17.5606 6.43937C16.9748 5.85354 16.0252 5.85354 15.4394 6.43937C14.8535 7.02519 14.8535 7.97481 15.4394 8.56063C16.0252 9.14646 16.9748 9.14646 17.5606 8.56063Z" fill="currentColor"/>
<path fill-rule="evenodd" clip-rule="evenodd" d="M15.0858 6.08581C15.8669 5.30473 17.1331 5.30473 17.9142 6.08581C18.6953 6.8669 18.6953 8.1331 17.9142 8.91419C17.1331 9.69527 15.8669 9.69527 15.0858 8.91419C14.3047 8.1331 14.3047 6.8669 15.0858 6.08581ZM15.7929 6.79292C16.1835 6.40236 16.8165 6.40236 17.2071 6.79292C17.5976 7.18348 17.5976 7.81652 17.2071 8.20708C16.8165 8.59764 16.1835 8.59764 15.7929 8.20708C15.4024 7.81652 15.4024 7.18348 15.7929 6.79292Z" fill="currentColor"/>
<path fill-rule="evenodd" clip-rule="evenodd" d="M20.4496 3.55037C17.7158 0.816543 13.2842 0.816543 10.5504 3.55037C8.75852 5.34222 8.14169 7.86331 8.69775 10.1559C8.7535 10.3858 8.69329 10.5996 8.56375 10.7291L1.93934 17.3536C1.65804 17.6349 1.5 18.0164 1.5 18.4142V21.5C1.5 22.0523 1.94772 22.5 2.5 22.5H5.5C6.05228 22.5 6.5 22.0523 6.5 21.5V19.5H8.79289C9.05811 19.5 9.31246 19.3946 9.5 19.2071L13.2709 15.4362C13.4004 15.3067 13.6142 15.2465 13.8441 15.3023C16.1367 15.8583 18.6578 15.2415 20.4496 13.4496C23.1835 10.7158 23.1835 6.2842 20.4496 3.55037ZM11.2575 4.25748C13.6008 1.91417 17.3992 1.91417 19.7425 4.25748C22.0858 6.60078 22.0858 10.3992 19.7425 12.7425C18.2074 14.2777 16.0476 14.8077 14.0798 14.3304C13.5644 14.2054 12.9764 14.3164 12.5638 14.7291L8.79289 18.5H6.5C5.94772 18.5 5.5 18.9477 5.5 19.5V21.5H2.5V18.4142C2.5 18.2816 2.55268 18.1544 2.64645 18.0607L9.27086 11.4362C9.68355 11.0236 9.79457 10.4356 9.66957 9.92022C9.1923 7.95244 9.72232 5.79264 11.2575 4.25748Z" fill="currentColor"/>
</svg>
