<svg width="24" height="24" viewBox="0 0 24 24" fill="none" xmlns="http://www.w3.org/2000/svg">
<path opacity="0.4" fill-rule="evenodd" clip-rule="evenodd" d="M4.32698 10.638C4 11.2798 4 12.1198 4 13.8V17.2C4 18.8802 4 19.7202 4.32698 20.362C4.6146 20.9265 5.07354 21.3854 5.63803 21.673C6.27976 22 7.11984 22 8.8 22H15.2C16.8802 22 17.7202 22 18.362 21.673C18.9265 21.3854 19.3854 20.9265 19.673 20.362C20 19.7202 20 18.8802 20 17.2V13.8C20 12.1198 20 11.2798 19.673 10.638C19.3854 10.0735 18.9265 9.6146 18.362 9.32698C17.7202 9 16.8802 9 15.2 9H8.8C7.11984 9 6.27976 9 5.63803 9.32698C5.07354 9.6146 4.6146 10.0735 4.32698 10.638ZM12 16C12.8284 16 13.5 15.3284 13.5 14.5C13.5 13.6716 12.8284 13 12 13C11.1716 13 10.5 13.6716 10.5 14.5C10.5 15.3284 11.1716 16 12 16Z" fill="currentColor"/>
<path fill-rule="evenodd" clip-rule="evenodd" d="M12.5 16.437C13.3626 16.215 14 15.4319 14 14.5C14 13.3954 13.1046 12.5 12 12.5C10.8954 12.5 10 13.3954 10 14.5C10 15.4319 10.6374 16.215 11.5 16.437V18C11.5 18.2761 11.7239 18.5 12 18.5C12.2761 18.5 12.5 18.2761 12.5 18V16.437ZM11 14.5C11 13.9477 11.4477 13.5 12 13.5C12.5523 13.5 13 13.9477 13 14.5C13 15.0523 12.5523 15.5 12 15.5C11.4477 15.5 11 15.0523 11 14.5Z" fill="currentColor"/>
<path fill-rule="evenodd" clip-rule="evenodd" d="M12 1.5C9.23858 1.5 7 3.73858 7 6.5V8.52792C6.92739 8.53212 6.85706 8.53696 6.78889 8.54253C6.25771 8.58593 5.81413 8.67609 5.41103 8.88148C4.75247 9.21703 4.21703 9.75247 3.88148 10.411C3.67609 10.8141 3.58593 11.2577 3.54253 11.7889C3.49999 12.3095 3.5 12.9565 3.5 13.7778V17.2222C3.5 18.0435 3.49999 18.6905 3.54253 19.2111C3.58593 19.7423 3.67609 20.1859 3.88148 20.589C4.21703 21.2475 4.75247 21.783 5.41103 22.1185C5.81413 22.3239 6.25771 22.4141 6.78889 22.4575C7.30951 22.5 7.95644 22.5 8.77764 22.5H15.2222C16.0434 22.5 16.6905 22.5 17.2111 22.4575C17.7423 22.4141 18.1859 22.3239 18.589 22.1185C19.2475 21.783 19.783 21.2475 20.1185 20.589C20.3239 20.1859 20.4141 19.7423 20.4575 19.2111C20.5 18.6905 20.5 18.0435 20.5 17.2222V13.7778C20.5 12.9565 20.5 12.3095 20.4575 11.7889C20.4141 11.2577 20.3239 10.8141 20.1185 10.411C19.783 9.75247 19.2475 9.21703 18.589 8.88148C18.1859 8.67609 17.7423 8.58593 17.2111 8.54253C17.1429 8.53696 17.0726 8.53212 17 8.52792V6.5C17 3.73858 14.7614 1.5 12 1.5ZM16 8.50166V6.5C16 4.29086 14.2091 2.5 12 2.5C9.79086 2.5 8 4.29086 8 6.5V8.50166C8.24035 8.5 8.49888 8.5 8.77747 8.5H15.2222C15.5008 8.5 15.7597 8.5 16 8.50166ZM5.86502 9.77248C6.10366 9.65089 6.40099 9.57756 6.87032 9.53921C7.34549 9.50039 7.95167 9.5 8.8 9.5H15.2C16.0483 9.5 16.6545 9.50039 17.1297 9.53921C17.599 9.57756 17.8963 9.65089 18.135 9.77248C18.6054 10.0122 18.9878 10.3946 19.2275 10.865C19.3491 11.1037 19.4224 11.401 19.4608 11.8703C19.4996 12.3455 19.5 12.9517 19.5 13.8V17.2C19.5 18.0483 19.4996 18.6545 19.4608 19.1297C19.4224 19.599 19.3491 19.8963 19.2275 20.135C18.9878 20.6054 18.6054 20.9878 18.135 21.2275C17.8963 21.3491 17.599 21.4224 17.1297 21.4608C16.6545 21.4996 16.0483 21.5 15.2 21.5H8.8C7.95167 21.5 7.34549 21.4996 6.87032 21.4608C6.40099 21.4224 6.10366 21.3491 5.86502 21.2275C5.39462 20.9878 5.01217 20.6054 4.77248 20.135C4.65089 19.8963 4.57756 19.599 4.53921 19.1297C4.50039 18.6545 4.5 18.0483 4.5 17.2V13.8C4.5 12.9517 4.50039 12.3455 4.53921 11.8703C4.57756 11.401 4.65089 11.1037 4.77248 10.865C5.01217 10.3946 5.39462 10.0122 5.86502 9.77248Z" fill="currentColor"/>
</svg>
